# xmcd
#
# Track frame offsets:
#	150
#	11993
#	24821
#	37267
#	48413
#	60345
#	76035
#	89860
#	101093
#	113978
#	127165
#	137373
#	148874
#	161331
#	175237
#	186861
#	198857
#	213014
#	225204
#	236494
#	252591
#
# Disc length: 3522 seconds
#
# Revision: 1
# Processed by: cddbd v1.5.2PL0 Copyright (c) Steve Scherf et al.
# Submitted via: audiograbber 1.83.01
#
DISCID=1c0dc015
DTITLE=Merle Haggard - A Portrait Of Merle Haggard and Keep Moving On
DYEAR=2004
DGENRE=Country
TTITLE0=Workin' Mans Blues
TTITLE1=What's Wrong With Stayin' Home
TTITLE2=Silver Wings
TTITLE3=Who Do I Know In Dallas
TTITLE4=She Thinks I Still Care
TTITLE5=Hungry Eyes
TTITLE6=I Die Ten Thousand Times A Day
TTITLE7=Every Fool Has A Rainbow
TTITLE8=I Came So Close To Living Alone
TTITLE9=Montego Bay
TTITLE10=Movin' On
TTITLE11=Life's Like Poetry
TTITLE12=I'Ve Got A Darlin' (For A Wife)
TTITLE13=These Mem'ries We're Making Tonight
TTITLE14=You'LL Always Be Special To Me
TTITLE15=September In Miami
TTITLE16=Allways Wanting You
TTITLE17=Kentucky Gambler
TTITLE18=Here In Frisco
TTITLE19=I'Ve Got A Yearning
TTITLE20=A Man's Gotta Give Up A Lot
EXTD=Compilation from album A Portrait Of Merle Haggard (1969) and Keep Movin O
EXTD=n (1974 - 1975]\n\nDistributed by BGO Record
EXTT0=
EXTT1=
EXTT2=
EXTT3=
EXTT4=
EXTT5=
EXTT6=
EXTT7=
EXTT8=
EXTT9=
EXTT10=
EXTT11=
EXTT12=
EXTT13=
EXTT14=
EXTT15=
EXTT16=
EXTT17=
EXTT18=
EXTT19=
EXTT20=
PLAYORDER=
